<svg id="Layer_1" data-name="Layer 1" xmlns="http://www.w3.org/2000/svg" viewBox="0 0 611.72 88.51"><defs><style>.cls-1{font-size:71.45px;font-family:Aileron-Bold, Aileron;font-weight:700;}.cls-1,.cls-2{fill:#ff4756;}.cls-3{fill:#fff;}</style></defs><text class="cls-1" transform="translate(130.5 66.48)">Panda Gadget</text><rect class="cls-2" width="111.53" height="88.51" rx="20.99"/><path class="cls-3" d="M278.19,478.53v5.17a14.12,14.12,0,0,0-5.79-4.22,20.5,20.5,0,0,0-7.67-1.38,21.37,21.37,0,0,0-10,2.32,17.7,17.7,0,0,0-5.2,4.07,17.73,17.73,0,0,0-4.87-3.92,20.61,20.61,0,0,0-10.15-2.47,18.78,18.78,0,0,0-7.31,1.38,14,14,0,0,0-5.57,4.15v-5.1H213v65.73h9.1v-31.6q4.58,5.25,12.44,5.24a20.61,20.61,0,0,0,10.15-2.47,17.56,17.56,0,0,0,5.86-5.21,18.26,18.26,0,0,0,4.21,3.06,21,21,0,0,0,10,2.37,20.13,20.13,0,0,0,7.35-1.31,15,15,0,0,0,5.67-3.86v2c0,4-1,6.93-3,8.87s-5.12,2.92-9.39,2.92a25.16,25.16,0,0,1-7.89-1.28,19.64,19.64,0,0,1-6.45-3.38L247,526.49a22.65,22.65,0,0,0,8.3,4.11A38.65,38.65,0,0,0,265.89,532q21,0,21-20.52v-33Zm-36.45,28.24a11,11,0,0,1-8.26,3.35,11.62,11.62,0,0,1-5.89-1.5,10.75,10.75,0,0,1-4.15-4.25,14.17,14.17,0,0,1,0-12.81,10.84,10.84,0,0,1,4.15-4.26,11.72,11.72,0,0,1,5.89-1.49,11,11,0,0,1,8.26,3.35,13.58,13.58,0,0,1,0,17.61Zm32.85-1.93a13.28,13.28,0,0,1-17,0,10.48,10.48,0,0,1-3.31-8,10.27,10.27,0,0,1,3.31-7.93,13.38,13.38,0,0,1,17,0,10.31,10.31,0,0,1,3.31,7.93A10.52,10.52,0,0,1,274.59,504.84Z" transform="translate(-194.14 -455.74)"/></svg>